<svg width="74" height="80" viewBox="0 0 74 80" fill="none" xmlns="http://www.w3.org/2000/svg">
<path d="M9.77773 34.5741L16.9074 25.5L2.66775 30.3201L1.99996 76.0555L24.037 77.3518L11.074 46.8889L9.77773 34.5741Z" fill="#EAE24D"/>
<path d="M64.2222 34.5741L57.0926 25.5L71.3322 30.3201L72 76.0555L49.963 77.3518L62.9259 46.8889L64.2222 34.5741Z" fill="black"/>
<path d="M16.2593 52.9383C20.4074 53.284 32.0309 43.0432 37 38.4342C41.9691 43.0432 53.5926 53.284 57.7407 52.9383C61.8889 52.5926 64.8703 43.749 64.2222 37.3827C63.5741 31.0165 55.1481 24.8519 55.7963 24.8519C56.4444 24.8519 71.3518 29.605 71.3518 29.605L72 76.2716C72 76.2716 60.3333 78 37 78C13.6667 78 2 76.2716 2 76.2716L2.64815 29.605C2.64815 29.605 17.5556 24.8519 18.2037 24.8519C18.8518 24.8519 10.4259 31.0165 9.77778 37.3827C9.12963 43.749 12.1111 52.5926 16.2593 52.9383Z" stroke="black" stroke-width="3.3" stroke-linecap="round"/>
<path d="M37 44.4074L42.7747 51.6087L48.6667 58.6667L42.7747 65.7247L37 72.9259L31.2253 65.7247L25.3334 58.6667L31.2253 51.6087L37 44.4074Z" fill="black"/>
<path d="M23.0299 17.2593L37.1512 17.2593L37.1512 34.5185L23.0299 17.2593Z" fill="#D9CC59"/>
<path d="M23.0299 17.2593L37.1512 17.2593L37.1512 4.96602e-06L23.0299 17.2593Z" fill="#F2EC74"/>
<path d="M37.1512 6.27611L26.168 13.3367L37.1512 1.52588e-05V6.27611Z" fill="white" fill-opacity="0.5"/>
<path d="M51.2724 17.2593L37.1511 17.2593L37.1511 1.16556e-05L51.2724 17.2593Z" fill="#C0A543"/>
<path d="M51.2723 17.2593L37.1511 17.2593L37.1512 34.5185L51.2723 17.2593Z" fill="#DBBA47"/>
</svg>
